# xmcd
#
# Track frame offsets: 
#        150
#        21867
#        42657
#        63375
#        81415
#        101160
#        121960
#        139632
#        162155
#        183037
#        208060
#
# Disc length: 3023 seconds
#
# Revision: 1
# Processed by: cddbd v1.5.2PL0 Copyright (c) Steve Scherf et al.
# Submitted via: ExactAudioCopy v1.0b3
#
DISCID=980bcd0b
DTITLE=牧瀬里穂 - P.S. RIHO
DYEAR=1993
DGENRE=Pop
TTITLE0=唇の契約書
TTITLE1=RIHO
TTITLE2=恋におちて
TTITLE3=国境に近い愛の歌
TTITLE4=ささげたい、あなたに…
TTITLE5=雨
TTITLE6=キャンセルされたプライバシー
TTITLE7=涙のパラシュート
TTITLE8=クリスマスが来れば
TTITLE9=いつもそばにいて
TTITLE10=Miracle Love
EXTD=
EXTT0=
EXTT1=
EXTT2=
EXTT3=
EXTT4=
EXTT5=
EXTT6=
EXTT7=
EXTT8=
EXTT9=
EXTT10=
PLAYORDER=
